<?xml version="1.0" encoding="UTF-8"?>
<svg id="Layer_1" data-name="Layer 1" xmlns="http://www.w3.org/2000/svg" xmlns:xlink="http://www.w3.org/1999/xlink" viewBox="0 0 45 45">
  <defs>
    <style>
      .cls-1 {
        fill: #fff;
      }

      .cls-2 {
        mask: url(#mask);
      }

      .cls-3 {
        fill: #2f4793;
      }

      .cls-4 {
        fill: #ed292e;
      }
    </style>
    <mask id="mask" x="-11.82" y="-6.66" width="68.64" height="57.25" maskUnits="userSpaceOnUse">
      <rect class="cls-1" x="0" y="0" width="45" height="45" rx="22.5" ry="22.5"/>
    </mask>
  </defs>
  <g class="cls-2">
    <g>
      <rect class="cls-4" x="-3.2" y="18.75" width="51.11" height="5.7"/>
      <rect class="cls-4" x="-3.2" y="19.09" width="51.11" height="5.04" transform="translate(43.96 -.75) rotate(90)"/>
      <polygon class="cls-4" points="31.54 17.22 51.78 6.63 50.89 4.92 27.71 17.05 27.8 17.22 31.54 17.22"/>
      <g>
        <polygon class="cls-4" points="13.39 18.75 15.58 20.07 16.37 18.75 13.39 18.75"/>
        <polygon class="cls-4" points="14.57 17.22 -5.86 4.98 -6.85 6.63 10.82 17.22 14.57 17.22"/>
      </g>
      <polygon class="cls-4" points="13.38 26.59 -6.85 37.18 -5.96 38.89 17.21 26.76 17.12 26.59 13.38 26.59"/>
      <polygon class="cls-4" points="30.36 26.59 50.79 38.83 51.78 37.18 34.1 26.59 30.36 26.59"/>
      <polygon class="cls-3" points="-3.46 17.22 8.26 17.22 -6.07 8.67 -3.46 17.22"/>
      <polygon class="cls-3" points="18.26 16.5 -10.85 -.38 -7.74 -5.66 18.54 -5.66 18.26 16.5"/>
      <polygon class="cls-3" points="26.6 16.5 26.6 -6.66 53.21 -4.77 48.15 5.42 26.6 16.5"/>
      <polygon class="cls-3" points="36.49 17.22 56.82 17.22 55.6 7.06 36.49 17.22"/>
      <polygon class="cls-3" points="48.46 26.71 36.74 26.71 51.07 35.25 48.46 26.71"/>
      <polygon class="cls-3" points="26.74 27.42 55.85 44.31 52.74 49.59 26.46 49.59 26.74 27.42"/>
      <polygon class="cls-3" points="18.4 27.42 18.4 50.59 -8.21 48.7 -3.15 38.5 18.4 27.42"/>
      <polygon class="cls-3" points="8.51 26.71 -11.82 26.71 -10.6 36.87 8.51 26.71"/>
    </g>
  </g>
</svg>