<?xml version="1.0" encoding="UTF-8"?>
<svg id="Layer_1" data-name="Layer 1" xmlns="http://www.w3.org/2000/svg" xmlns:xlink="http://www.w3.org/1999/xlink" viewBox="0 0 45 45">
  <defs>
    <style>
      .cls-1 {
        fill: #d0c6cd;
      }

      .cls-2 {
        fill: #e4e543;
      }

      .cls-3 {
        fill: #c49837;
      }

      .cls-4 {
        fill: #f9e924;
      }

      .cls-5 {
        fill: #fbe923;
      }

      .cls-6 {
        fill: #e694aa;
      }

      .cls-7 {
        fill: #8d9781;
      }

      .cls-8 {
        fill: #e0b62f;
      }

      .cls-9 {
        fill: #979a59;
      }

      .cls-10 {
        fill: #fbf715;
      }

      .cls-11 {
        fill: #861f08;
      }

      .cls-12 {
        fill: #f6f423;
      }

      .cls-13 {
        fill: #819018;
      }

      .cls-14 {
        fill: #820c00;
      }

      .cls-15 {
        fill: #bb5236;
      }

      .cls-16 {
        fill: #741a36;
      }

      .cls-17 {
        fill: #951821;
      }

      .cls-18 {
        fill: #f0ea1b;
      }

      .cls-19 {
        fill: #831105;
      }

      .cls-20 {
        fill: #535283;
      }

      .cls-21 {
        fill: #898d9d;
      }

      .cls-22 {
        fill: #a0402c;
      }

      .cls-23 {
        fill: #faed30;
      }

      .cls-24 {
        fill: #50617b;
      }

      .cls-25 {
        fill: #801005;
      }

      .cls-26 {
        fill: #b8742e;
      }

      .cls-27 {
        fill: #eeee4c;
      }

      .cls-28 {
        fill: #f3f021;
      }

      .cls-29 {
        fill: #f12626;
      }

      .cls-30 {
        fill: #641d05;
      }

      .cls-31 {
        fill: #c29929;
      }

      .cls-32 {
        fill: #ad5a4e;
      }

      .cls-33 {
        fill: #a25929;
      }

      .cls-34 {
        fill: #be5f26;
      }

      .cls-35 {
        fill: #e8e44e;
      }

      .cls-36 {
        fill: #7f0a2a;
      }

      .cls-37 {
        fill: #910f22;
      }

      .cls-38 {
        fill: #e7c8ad;
      }

      .cls-39 {
        fill: #ebdf42;
      }

      .cls-40 {
        fill: #d1b5b3;
      }

      .cls-41 {
        fill: #f9f327;
      }

      .cls-42 {
        fill: #bab137;
      }

      .cls-43 {
        fill: #791e2f;
      }

      .cls-44 {
        fill: #8b050b;
      }

      .cls-45 {
        fill: #f1f12f;
      }

      .cls-46 {
        fill: #cfc314;
      }

      .cls-47 {
        fill: #d1c8c2;
      }

      .cls-48 {
        fill: #b65836;
      }

      .cls-49 {
        fill: #9c0921;
      }

      .cls-50 {
        fill: #fefb48;
      }

      .cls-51 {
        fill: #712442;
      }

      .cls-52 {
        fill: #881f20;
      }

      .cls-53 {
        fill: #bb9812;
      }

      .cls-54 {
        fill: #e0853b;
      }

      .cls-55 {
        fill: #fef85d;
      }

      .cls-56 {
        fill: #891c05;
      }

      .cls-57 {
        fill: #8a2014;
      }

      .cls-58 {
        fill: #8e3911;
      }

      .cls-59 {
        fill: #9c3c1a;
      }

      .cls-60 {
        fill: #cea041;
      }

      .cls-61 {
        fill: #c1c7ca;
      }

      .cls-62 {
        fill: #f9f348;
      }

      .cls-63 {
        fill: #faf237;
      }

      .cls-64 {
        fill: #a75350;
      }

      .cls-65 {
        fill: #c9c0c6;
      }

      .cls-66 {
        fill: #dec0cc;
      }

      .cls-67 {
        fill: #a23e14;
      }

      .cls-68 {
        fill: #e3d968;
      }

      .cls-69 {
        fill: #e9c147;
      }

      .cls-70 {
        fill: #f8ef20;
      }

      .cls-71 {
        fill: #eee41b;
      }

      .cls-72 {
        fill: #b3bcae;
      }

      .cls-73 {
        fill: #fff;
      }

      .cls-74 {
        fill: #c6c009;
      }

      .cls-75 {
        mask: url(#mask);
      }

      .cls-76 {
        fill: #8d1f00;
      }

      .cls-77 {
        fill: #9a402d;
      }

      .cls-78 {
        fill: #f8e42f;
      }

      .cls-79 {
        fill: #d5c8b4;
      }

      .cls-80 {
        fill: #efe915;
      }

      .cls-81 {
        fill: #e1cb45;
      }

      .cls-82 {
        fill: #faf61e;
      }

      .cls-83 {
        fill: #fdf427;
      }

      .cls-84 {
        fill: #a03e21;
      }

      .cls-85 {
        fill: #84837b;
      }

      .cls-86 {
        fill: #f5ef11;
      }

      .cls-87 {
        fill: #911806;
      }

      .cls-88 {
        fill: #861300;
      }

      .cls-89 {
        fill: #fcf619;
      }

      .cls-90 {
        fill: #d5b22c;
      }

      .cls-91 {
        fill: #8f090e;
      }

      .cls-92 {
        fill: #faf81a;
      }

      .cls-93 {
        fill: #849098;
      }

      .cls-94 {
        fill: #faef1b;
      }

      .cls-95 {
        fill: #c76842;
      }

      .cls-96 {
        fill: #9ea255;
      }

      .cls-97 {
        fill: #e6dc28;
      }

      .cls-98 {
        fill: #cd6d4b;
      }

      .cls-99 {
        fill: #f8f623;
      }

      .cls-100 {
        fill: #d5c2d2;
      }

      .cls-101 {
        fill: #dad10c;
      }

      .cls-102 {
        fill: #962832;
      }

      .cls-103 {
        fill: #7a1900;
      }

      .cls-104 {
        fill: #f5f026;
      }

      .cls-105 {
        fill: #fafa1d;
      }

      .cls-106 {
        fill: #c8a228;
      }

      .cls-107 {
        fill: #f8f11d;
      }

      .cls-108 {
        fill: #781a04;
      }

      .cls-109 {
        fill: #892e07;
      }

      .cls-110 {
        fill: #b7ae23;
      }

      .cls-111 {
        fill: #99a28b;
      }

      .cls-112 {
        fill: #c55e44;
      }

      .cls-113 {
        fill: #f9ee12;
      }

      .cls-114 {
        fill: #c9bbbc;
      }

      .cls-115 {
        fill: #a33e27;
      }

      .cls-116 {
        fill: #8e091c;
      }

      .cls-117 {
        fill: #87340e;
      }

      .cls-118 {
        fill: #c16b3d;
      }

      .cls-119 {
        fill: #faf832;
      }

      .cls-120 {
        fill: #c2aabb;
      }

      .cls-121 {
        fill: #efec1b;
      }

      .cls-122 {
        fill: #e7ea3e;
      }

      .cls-123 {
        fill: #d7bdba;
      }

      .cls-124 {
        fill: #f0dc20;
      }

      .cls-125 {
        fill: #fbf420;
      }

      .cls-126 {
        fill: #fee955;
      }

      .cls-127 {
        fill: #cb84a7;
      }

      .cls-128 {
        fill: #bb5d5c;
      }

      .cls-129 {
        fill: #d87d48;
      }

      .cls-130 {
        fill: #c08334;
      }

      .cls-131 {
        fill: #d6c49e;
      }

      .cls-132 {
        fill: #fbf716;
      }

      .cls-133 {
        fill: #dcd291;
      }

      .cls-134 {
        fill: #862c05;
      }

      .cls-135 {
        fill: #e9e813;
      }

      .cls-136 {
        fill: #f6eb2b;
      }

      .cls-137 {
        fill: #faf71c;
      }

      .cls-138 {
        fill: #b06329;
      }

      .cls-139 {
        fill: #eea95c;
      }

      .cls-140 {
        fill: #b17219;
      }

      .cls-141 {
        fill: #8d1f06;
      }

      .cls-142 {
        fill: #ba6e36;
      }

      .cls-143 {
        fill: #8d2001;
      }

      .cls-144 {
        fill: #bc8da9;
      }

      .cls-145 {
        fill: #d0c3a5;
      }

      .cls-146 {
        fill: #d7b3c5;
      }

      .cls-147 {
        fill: #b34a26;
      }

      .cls-148 {
        fill: #b38e37;
      }

      .cls-149 {
        fill: #d0b9c7;
      }

      .cls-150 {
        fill: #dfd870;
      }

      .cls-151 {
        fill: #feea3b;
      }

      .cls-152 {
        fill: #fffd18;
      }

      .cls-153 {
        fill: #b18612;
      }

      .cls-154 {
        fill: #c2b217;
      }

      .cls-155 {
        fill: #f1dd42;
      }

      .cls-156 {
        fill: #fdfa47;
      }

      .cls-157 {
        fill: #d5bf3d;
      }

      .cls-158 {
        fill: #af4c23;
      }

      .cls-159 {
        fill: #9d3408;
      }

      .cls-160 {
        fill: #89230b;
      }

      .cls-161 {
        fill: #c0bac0;
      }

      .cls-162 {
        fill: #830c01;
      }

      .cls-163 {
        fill: #f7fa40;
      }

      .cls-164 {
        fill: #bda034;
      }

      .cls-165 {
        fill: #977f01;
      }

      .cls-166 {
        fill: #cec0c2;
      }

      .cls-167 {
        fill: #c59f64;
      }

      .cls-168 {
        fill: #a56c11;
      }

      .cls-169 {
        fill: #bd723b;
      }

      .cls-170 {
        fill: #6e2034;
      }

      .cls-171 {
        fill: #928a7c;
      }

      .cls-172 {
        fill: #d0c0b6;
      }

      .cls-173 {
        fill: #d37654;
      }

      .cls-174 {
        fill: #9a0c1f;
      }

      .cls-175 {
        fill: #d0b3cb;
      }

      .cls-176 {
        fill: #917f24;
      }

      .cls-177 {
        fill: #da8d54;
      }

      .cls-178 {
        fill: #950b1f;
      }

      .cls-179 {
        fill: #fdf61f;
      }

      .cls-180 {
        fill: #f0ed33;
      }

      .cls-181 {
        fill: #ece927;
      }

      .cls-182 {
        fill: #efeb0c;
      }

      .cls-183 {
        fill: #c2692e;
      }

      .cls-184 {
        fill: #e4e226;
      }

      .cls-185 {
        fill: #840704;
      }

      .cls-186 {
        fill: #9a1523;
      }

      .cls-187 {
        fill: #fec8b6;
      }

      .cls-188 {
        fill: #fef526;
      }

      .cls-189 {
        fill: #9e1e24;
      }

      .cls-190 {
        fill: #faf711;
      }

      .cls-191 {
        fill: #efe744;
      }

      .cls-192 {
        fill: #821101;
      }

      .cls-193 {
        fill: #cc9a3f;
      }

      .cls-194 {
        fill: #fcd73e;
      }

      .cls-195 {
        fill: #fde234;
      }

      .cls-196 {
        fill: #d7a3b7;
      }

      .cls-197 {
        fill: #f6fa14;
      }

      .cls-198 {
        fill: #f42526;
      }

      .cls-199 {
        fill: #fde23c;
      }

      .cls-200 {
        fill: #8f9b4a;
      }

      .cls-201 {
        fill: #eeea0f;
      }

      .cls-202 {
        fill: #802504;
      }

      .cls-203 {
        fill: #929d22;
      }

      .cls-204 {
        fill: #a45628;
      }

      .cls-205 {
        fill: #9e0b29;
      }

      .cls-206 {
        fill: #96a043;
      }

      .cls-207 {
        fill: #fbf718;
      }

      .cls-208 {
        fill: #880c00;
      }

      .cls-209 {
        fill: #fcf719;
      }

      .cls-210 {
        fill: #fef51b;
      }

      .cls-211 {
        fill: #e7c6ca;
      }

      .cls-212 {
        fill: #6c4d8a;
      }

      .cls-213 {
        fill: #b39b2f;
      }

      .cls-214 {
        fill: #a1653e;
      }

      .cls-215 {
        fill: #d7694e;
      }

      .cls-216 {
        fill: #6a1e00;
      }

      .cls-217 {
        fill: #990e23;
      }

      .cls-218 {
        fill: #f3ab4a;
      }

      .cls-219 {
        fill: #a53d0f;
      }

      .cls-220 {
        fill: #faf61a;
      }

      .cls-221 {
        fill: #ada128;
      }

      .cls-222 {
        fill: #973f08;
      }

      .cls-223 {
        fill: #d27453;
      }

      .cls-224 {
        fill: #c5b627;
      }

      .cls-225 {
        fill: #be88a3;
      }

      .cls-226 {
        fill: #fef743;
      }

      .cls-227 {
        fill: #dccf8b;
      }

      .cls-228 {
        fill: #9a5909;
      }

      .cls-229 {
        fill: #fbf83e;
      }

      .cls-230 {
        fill: #aa5320;
      }

      .cls-231 {
        fill: #cb7258;
      }

      .cls-232 {
        fill: #ca8c41;
      }

      .cls-233 {
        fill: #878d41;
      }

      .cls-234 {
        fill: #ac645e;
      }

      .cls-235 {
        fill: #f6f120;
      }

      .cls-236 {
        fill: #931c19;
      }

      .cls-237 {
        fill: #f0e418;
      }

      .cls-238 {
        fill: #b16537;
      }

      .cls-239 {
        fill: #fee554;
      }

      .cls-240 {
        fill: #9a0b1e;
      }

      .cls-241 {
        fill: #bc422f;
      }

      .cls-242 {
        fill: #f1e22a;
      }

      .cls-243 {
        fill: #912f0f;
      }

      .cls-244 {
        fill: #863255;
      }

      .cls-245 {
        fill: #d9c2c9;
      }

      .cls-246 {
        fill: #f7f31f;
      }

      .cls-247 {
        fill: #802e08;
      }

      .cls-248 {
        fill: #dabac3;
      }

      .cls-249 {
        fill: #e8ea0b;
      }

      .cls-250 {
        fill: #faf912;
      }

      .cls-251 {
        fill: #82110b;
      }

      .cls-252 {
        fill: #c5a633;
      }

      .cls-253 {
        fill: #944320;
      }

      .cls-254 {
        fill: #c95649;
      }

      .cls-255 {
        fill: #f8f115;
      }

      .cls-256 {
        fill: #f3f221;
      }

      .cls-257 {
        fill: #ce6453;
      }

      .cls-258 {
        fill: #9e1325;
      }

      .cls-259 {
        fill: #cdcbbc;
      }

      .cls-260 {
        fill: #bf705c;
      }

      .cls-261 {
        fill: #d69c3b;
      }

      .cls-262 {
        fill: #fdf816;
      }

      .cls-263 {
        fill: #922312;
      }

      .cls-264 {
        fill: #c6ba11;
      }

      .cls-265 {
        fill: #f2e83b;
      }

      .cls-266 {
        fill: #b15823;
      }

      .cls-267 {
        fill: #b69e41;
      }

      .cls-268 {
        fill: #d7c591;
      }

      .cls-269 {
        fill: #cfc58a;
      }

      .cls-270 {
        fill: #a83c2a;
      }

      .cls-271 {
        fill: #963821;
      }

      .cls-272 {
        fill: #f3e53a;
      }

      .cls-273 {
        fill: #932707;
      }

      .cls-274 {
        fill: #a95e29;
      }

      .cls-275 {
        fill: #f5f02b;
      }

      .cls-276 {
        fill: #c7844a;
      }

      .cls-277 {
        fill: #9c5311;
      }

      .cls-278 {
        fill: #c56798;
      }

      .cls-279 {
        fill: #f0de2d;
      }

      .cls-280 {
        fill: #faf616;
      }

      .cls-281 {
        fill: #e46a6b;
      }

      .cls-282 {
        fill: #f8d93b;
      }

      .cls-283 {
        fill: #beb02d;
      }

      .cls-284 {
        fill: #d7aeab;
      }
    </style>
    <mask id="mask" x="-.02" y="0" width="45" height="45" maskUnits="userSpaceOnUse">
      <rect class="cls-73" x="-.02" y="0" width="45" height="45" rx="22.5" ry="22.5"/>
    </mask>
  </defs>
  <g class="cls-75">
    <g>
      <rect class="cls-29" x="14.99" y="-14.99" width="14.99" height="45" transform="translate(29.99 -14.98) rotate(90)"/>
      <rect class="cls-152" x="14.99" y="0" width="14.99" height="45" transform="translate(44.98 .02) rotate(90)"/>
      <rect class="cls-198" x="14.99" y="14.99" width="14.99" height="45" transform="translate(59.98 15.01) rotate(90)"/>
    </g>
  </g>
  <g>
    <path class="cls-201" d="M11.14,27.51c-.06-.29.06-.29.31-.15.13.04.13.09,0,.15"/>
    <path class="cls-86" d="M6.23,26.86c.04-.25.78-.58,1.08-.26.05-.14.1-.14.15,0,.1.02.17.04.15.15.23.2.13.25-.15.31"/>
    <path class="cls-18" d="M8.84,27.36c-.21-.21-.06-.31.46-.31-.11-.24.3-.31.46-.15.22.12.12.22-.31.31"/>
    <path class="cls-262" d="M5.17,27.05c.13-.2.42-.28.61-.15.65-.27.85-.22.6.16"/>
    <path class="cls-255" d="M4.56,27.21c-.18-.4.33-.31.61-.15"/>
    <path class="cls-70" d="M5.78,26.9c-.13-.04-.13-.09,0-.15.05-.27.15-.48.31-.61.04-.13.09-.13.15,0,0-.19.05-.25.15-.15.04-.14.09-.14.15,0,.18-.18.18-.1.15.15.14-.13.35-.03.61.31.13.04.13.09,0,.15-.42.05-.52-.16-.46.46l-.46-.15"/>
    <path class="cls-92" d="M9.45,27.21c.05-.1.23-.2.31-.31.1-.22.61-.45.76-.15.14.07.24.17.31.31.46.15.56.3.31.46"/>
    <path class="cls-182" d="M11.75,26.9c.13.04.13.09,0,.15-.02,0-.13.21-.31.31-.1.05-.21.09-.31.15-.11-.12-.2-.36-.31-.46-.13-.04-.13-.09,0-.15.39-.15.69-.15.92,0Z"/>
    <path class="cls-179" d="M7.19,27.44s.21-.28.28-.38c.28-.22,1.65-.14,1.38.31"/>
    <path class="cls-130" d="M7.77,23.69c.05.92.1,1.84.15,2.75.13.04.13.09,0,.15-.13.16-.3.1-.46,0-.05,0-.1,0-.15,0v-.15c-.13-.04-.13-.09,0-.15-.08-.65-.02-1.26.15-1.84l-.13-.72c-.3-.32.71-.6.44-.05Z"/>
    <path class="cls-35" d="M10.83,26.29c.13.04.13.09,0,.15.13.04.13.09,0,.15-.06.32-.16.37-.31.15-.24.06-.51.06-.76.15-.16.06-.22.03-.46.15-.45.06-1.46-.02-1.68-.31-.06-.03-.11-.1-.15-.15.15,0,.31-.01.46,0,.17-.16.47-.1.92.15.03-.14.08-.13.15,0,.09-.36.39-.41.92-.15-.03-.33,0-.36.31-.31.16-.08.46-.11.61,0Z"/>
    <path class="cls-125" d="M9.3,27.05c-.13.07-.37.2-.46.31-.23-.54-.88-.24-1.38-.31.06-.09.1-.21.15-.31.5.23,1.14.15,1.68.31Z"/>
    <path class="cls-89" d="M4.1,25.98c0,.27.06.52.15.76.19.12.29.27.31.46"/>
    <path class="cls-209" d="M12.51,17.73c-.08.4-.16.36-.31,0"/>
    <path class="cls-28" d="M4.71,26.75h.15c.15.11.3.12.46,0,.08-.13.19-.1.31,0,.02-.1.08-.09.15,0v.15s-.47.12-.61.15c-.19.04-.42,0-.61.15-.74-.18-.27-.36-.31-.46.04-.13.09-.13.15,0,.01-.34.23-.33.31,0Z"/>
    <path class="cls-180" d="M12.05,25.83c.13.04.13.09,0,.15.02.06-.03.11-.15.15.21.09.27.4,0,.46l.92.15c.13.05.13.1,0,.15-.04.15-.18.14-.31.15l-.76-.15-.2.03c-.14-.24-.38-.4-.72-.49v-.15c-.13-.17.09-.45.31-.31.05-.13.1-.13.15,0,.08-.32.25-.47.46-.15.08-.3.22-.3.31,0Z"/>
    <path class="cls-42" d="M12.97,25.53c.36-.26.39-.08.31.31v.15l-.06.16c-.39-.06-.78-.11-1.16-.16v-.15c-.22-.28-.22-.3.15-.31.04-.14.09-.13.15,0,0-.25.46-.15.61,0Z"/>
    <path class="cls-9" d="M13.28,25.98c.05,0,.1,0,.15,0,.14.24.2.83-.15.76-.33-.25-.69-.45-1.07-.61-.01.32-.23.31-.31,0,.02-.11.04-.13.15-.15.28-.05.91-.02,1.22,0Z"/>
    <path class="cls-256" d="M13.43,24.76c.2-.14.24-.07.15.15-.09.17-.09.41-.15.61-.03.1-.11.2-.15.31-.08-.07-.22-.29-.31-.31l-.15-.14c.17-.03.27-.24.3-.63.1-.41.17-.39.31,0Z"/>
    <path class="cls-62" d="M13.58,25.98c.18.51.21,1.1-.46,1.07-.06-.01-.25-.11-.31-.15-.02-.02.02-.14,0-.15.03-.41.33-.35.46,0,.27-.11.13-.51.15-.76.06,0,.12-.02.15,0Z"/>
    <path class="cls-12" d="M13.58,25.98c.3.18.11.76.15,1.07-.19-.02-.43.03-.61,0,.66-.19.45-.47.46-1.07Z"/>
    <path class="cls-235" d="M12.51,27.05c-.23.02-.6-.05-.76,0v-.15c.2-.04.67-.05.76.15Z"/>
    <path class="cls-107" d="M10.83,26.9v.15c-.07-.06-.41.17-.31-.31.1-.02.2-.12.31-.15.41.05.39.19,0,.31Z"/>
    <path class="cls-250" d="M10.83,26.44l.76-.31.15.76c-.29.06-.4.57-.92,0v-.46Z"/>
    <path class="cls-56" d="M7.47,24.46c.09.62,0,1.26-.15,1.84-.15.13-.23.04-.15-.15-.1-.54-.16-1.18,0-1.68-.09-.18-.28-.65,0-.76.19-.09.29.17.31.76Z"/>
    <path class="cls-17" d="M7.93,23.38c.33-.17.41-.02.31.31.31.08.27.35,0,.46.13.05.13.1,0,.15-.04.13-.09.13-.15,0v-.15c-.16-.03-.26-.19-.31-.46-.01-.01,0-.12-.08-.15h-.23s0,.92,0,.92c-.01-.11-.21-.72-.31-.76-.09.4-.16.38-.31,0-.04.13-.09.13-.15,0-.13-.04-.13-.09,0-.15.02-.14.07-.13.15,0,.22-.22.42-.37.61-.46.04-.13.09-.13.15,0,.4-.16.5-.13.31.31Z"/>
    <path class="cls-108" d="M8.08,24.15c-.05.78-.1,1.54-.15,2.29-.23,0-.14-.22-.16-.38-.06-.76.05-1.6,0-2.37.14.12.27.27.31.46Z"/>
    <path class="cls-3" d="M7.01,24.46c.06.53.11,1.09.15,1.68.03.06.1.1.15.15-.01.05,0,.1,0,.15-.3.05-.45-.22-.61-.31.04-.72.09-1.44.15-2.14.27-.21.3.25.15.46Z"/>
    <path class="cls-269" d="M8.38,26.29c.3.1.45.26.46.46-.41,0-.66-.13-.92-.15v-.15l.15-.15c.05-.13.1-.13.15,0,.04-.14.09-.14.15,0Z"/>
    <path class="cls-79" d="M9.3,26.14c.03-.14.08-.13.15,0,.34.05.5.2.46.46-.3.11-.6.15-.92.15-.17-.12-.27-.27-.31-.46-.1-.05-.1-.1,0-.15l.15-.15c.17-.42.35-.19.46.15Z"/>
    <path class="cls-43" d="M10.22,26.14c.13.04.13.09,0,.15-.05.03.19.13-.31.31-.22-.18-.56-.09-.46-.46-.08-.41,0-.44.31-.15.25-.38.39-.27.46.15Z"/>
    <path class="cls-160" d="M11.14,25.98c-.09.03-.21.26-.31.31-.38.18-.58-.02-.61,0v-.15c.04-.13.09-.13.15,0l.46-.46c.21-.35.45.01.31.31Z"/>
    <path class="cls-38" d="M8.69,26.29c.17.09.4-.21.31.46-.05,0-.1,0-.15,0-.22-.18-.56-.09-.46-.46.04-.13.09-.13.15,0,.04-.13.09-.13.15,0Z"/>
    <path class="cls-82" d="M5.63,24.15c.22-.08.43.09.46.31.11.5.19,1.16.15,1.68-.05,0-.1,0-.15,0-.28.28-.33.24-.31-.15-.22.27-.37.19-.31-.15-.3-.05-.3-.05-.15-.31-.34-.38-.18-1.19.31-1.38Z"/>
    <path class="cls-162" d="M6.86,24c0,.67.13,1.57-.15,2.14-.06-.03-.11-.14-.15-.15-.13-.04-.11-.22,0-.31.06-.52.11-1.03.15-1.53-.23-.14-.22-.31,0-.46h.15c.23,0,.22.25,0,.31Z"/>
    <path class="cls-265" d="M6.09,26.14l.15.61c-.15.01-.31-.01-.46,0l-.15-.15c-.13-.04-.13-.09,0-.15-.33-.25-.2-.37.15-.46.14.02.27.15.31.15Z"/>
    <path class="cls-188" d="M6.4,25.68c.13.01.11.21,0,.31-.01,0,.03.17-.15.15-.23-.55-.11-1.12-.15-1.68.04-.13.09-.13.15,0,.07.39.12.8.15,1.22Z"/>
    <path class="cls-90" d="M6.55,25.68v.31s-.11,0-.15,0c-.02-.1.02-.23,0-.31-.09-.45-.1-.91-.03-1.36l.19-.02c.17.37.1.94,0,1.38Z"/>
    <path class="cls-280" d="M3.72,20.02c.17.12.27.29.38.46.65-.05.42,1.5-.15,1.38"/>
    <path class="cls-41" d="M4.71,20.02c.13.04.13.09,0,.15.18.19.21.27,0,.46.19.29.31.74-.15.76.1.3.17,1.13-.15,1.22.01.29-.09.34-.31.15-.4.09-.42,0-.15-.31-.24-.35-.24-.56,0-.61.18-.55.67-.58.15-1.38.13-.06.11-.25.15-.31-.19-.22-.11-.3.15-.15.11-.06.22-.11.31,0Z"/>
    <path class="cls-207" d="M3.8,24.3c.04-.13.09-.13.15,0,.08.19.18.39.31.61.03-.16.08-.21.15-.15.43-.16.67.53.31.76.2.21.11.31-.15.15-.05.2-.25.4-.46.31"/>
    <path class="cls-94" d="M3.64,22.16c.15-.14.25-.04.31.31.04.08.14.27.15.31.34.09.32.36,0,.46.6.29.55.64-.15,1.07h-.15c-.08-.11-.1-.37-.18-.43"/>
    <path class="cls-237" d="M3.95,21.86c-.05.14.03.43,0,.61-.05-.1-.23-.2-.31-.31"/>
    <path class="cls-2" d="M4.56,25.98c.02.12-.09.23-.31.31.44-.1.55.23.15.46h-.15c-.03-.08-.56-.2-.15-.76.03-.05.37-.26.46-.31.41.05.39.19,0,.31Z"/>
    <path class="cls-197" d="M9.91,17.57c.13.04.13.09,0,.15-.02.2-.23.2-.61,0"/>
    <path class="cls-104" d="M9.3,17.73c-.05.13-.1.13-.15,0-.11.07-.21.09-.31,0"/>
    <path class="cls-10" d="M8.23,17.57c-.04.23-.28.27-.31,0"/>
    <path class="cls-132" d="M12.21,17.73c-.11.09-.09.68-.76.76-.05.14-.1.14-.15,0-.18-.16-.34-.31-.46-.46-.39-.06-.64-.15-.31-.46"/>
    <path class="cls-121" d="M10.53,17.57c.07.09-.02.18.31.46,0,.22-.41.19-.61.15-.26.02-.38-.24-.31-.46v-.15"/>
    <path class="cls-93" d="M5.17,26.14c.27-.24.48-.01.31.31-.12.07-.28.12-.46.15-.05.08-.15.13-.31.15h-.31c.01-.14-.16-.39-.15-.46.24-.21.67-.31.92-.15Z"/>
    <path class="cls-206" d="M5.63,26.6c.08.05.08.1,0,.15-.1,0-.2,0-.31,0-.11.11-.22.12-.31,0-.13-.04-.13-.09,0-.15.24-.12.45-.12.61,0Z"/>
    <path class="cls-27" d="M5.33,26.75c-.02.23-.44.23-.46,0,.04-.09.09-.08.15,0,.1,0,.2,0,.31,0Z"/>
    <path class="cls-233" d="M5.02,26.6v.15c-.05,0-.1,0-.15,0h-.15c.07-.13.21-.11.31-.15Z"/>
    <path class="cls-13" d="M5.78,26.75c-.05,0-.1,0-.15,0v-.15c.09.02.15.05.15.15Z"/>
    <path class="cls-99" d="M12.05,24c.11.46.16.97.15,1.53-.02,0-.03.26-.15.31-.1.01-.22-.02-.31,0-.09.02-.17.03-.23,0-.09-.06-.08-2.04.23-1.98.22-.22.35-.15.31.15Z"/>
    <path class="cls-194" d="M11.75,23.69c.14.03.13.08,0,.15,0,.03-.15.24-.16.52-.02.47-.05,1.04.16,1.47-.11.03-.35.11-.46.15-.16-.09-.22-.28,0-.31.05-.68.1-1.34.15-1.99.05-.41.19-.39.31,0Z"/>
    <path class="cls-7" d="M12.21,26.14c.31.12.46.28.46.46-.14.17-.54.1-.76,0-.02-.05-.02-.38,0-.46.1,0,.21-.01.31,0Z"/>
    <path class="cls-141" d="M11.29,25.37c.07.04.07.15,0,.31v.31s-.11-.02-.15,0c-.05-.13-.16-.29-.31-.31-.4-.06-.38-.18,0-.31.21-.23.37-.36.46,0Z"/>
    <path class="cls-203" d="M12.67,26.6c.22-.21.31-.11.15.15-.27.02-.82.09-.92-.15h.76Z"/>
    <path class="cls-239" d="M13.43,24.3c.41-.07.31.1.31.46-.02.04-.12.09-.15.15-.1,0-.14-.15-.15-.15-.18-.14-.16-.3,0-.46Z"/>
    <path class="cls-122" d="M12.36,24.15c.13.05.13.1,0,.15.42.11.44.82,0,.92.34.11.34.2,0,.31-.05.01-.12-.02-.15,0-.52-.47-.09-.94-.15-1.53.22-.22.35-.15.31.15Z"/>
    <path class="cls-133" d="M13.12,24.76c-.03.27.02.53-.15.76-.11-.03-.49-.02-.61,0v-.31c.26-.19.36-.43.31-.72l.31-.2c.3-.37.57.3.15.46Z"/>
    <path class="cls-21" d="M13.28,26.75c-.08.03-.32,0-.46,0-.05-.03-.1-.1-.15-.15-.21-.18-.56-.09-.46-.46.57.08,1.14-.21,1.07.61Z"/>
    <path class="cls-102" d="M13.12,24c.18-.26.32-.17.31.15,0,.05,0,.1,0,.15,0,.15,0,.31,0,.46-.08-.03-.21.02-.31,0,.01-.12.29-.36-.15-.46-.14.41-.47.43-.61,0,0-.05-.01-.11,0-.15-.27-.36-.07-.54.31-.31.28-.33.4-.29.46.15Z"/>
    <path class="cls-60" d="M7.16,26.14c-.29-.49-.13-1.11-.15-1.68.04-.13.09-.13.15,0v1.68Z"/>
    <path class="cls-261" d="M7.16,23.69v.76h-.15c0-.17.05-.38-.15-.46v-.31c.09.02.25-.03.31,0Z"/>
    <path class="cls-267" d="M8.08,21.55c.22-.19.3-.1.15.15.23.2.14.39-.15.31.07.19.12.45,0,.61.24.29-.18.75-.46.46-.04-.02-.1.02-.15,0l-.15-.15c-.07.07-.13.02-.15-.15.01-.3.01-.61,0-.92-.11-.19-.04-.27.15-.15.2-.48.38-.39.76-.15Z"/>
    <path class="cls-217" d="M6.24,22.93c-.35-.7.72-.59.76,0,.1.04.1.09,0,.15.23.11.18.26-.15.46-.05,0-.1,0-.15,0-.12.25-.22.2-.31-.15-.05-.13-.1-.28-.15-.46Z"/>
    <path class="cls-244" d="M9.45,24.3c.07.13,0,.17-.15.15l-.15.15c-.04.14-.09.13-.15,0-.19.43-.4.27-.46-.15-.18.17-.24.05-.31-.15,0-.05,0-.1,0-.15.09-.29.22-.29.31,0,.18-.23.4-.45.61-.15.27-.42.59-.09.31.31Z"/>
    <path class="cls-15" d="M8.08,24.3c.15.61.11,1.37,0,1.99-.01,0,.04.16-.15.15.08-.73-.19-1.66.15-2.29,0,.05,0,.1,0,.15Z"/>
    <path class="cls-139" d="M8.23,24.61c.11.55.14,1.14,0,1.68-.05,0-.1-.01-.15,0-.05-.64.07-1.36,0-1.99h.15c.18.11.21.2,0,.31Z"/>
    <path class="cls-170" d="M8.54,22.93c.26.21.27.24,0,.46.12.25-.06.42-.31.31-.17-.04-.22-.22-.31-.31-.16-.21.22-.66.46-.46.04-.14.09-.13.15,0Z"/>
    <path class="cls-20" d="M8.69,23.69c.42.1.16.31-.15.46-.1,0-.2,0-.31,0,.01-.14-.03-.35,0-.46.06-.18.16-.22.31-.31.29-.11.39.11.15.31Z"/>
    <path class="cls-232" d="M8.23,22.77c.13-.07.18,0,.15.15-.21.11-.36.23-.46.46-.06-.06-.29-.3-.31-.31.24.12.41-.26.46-.46.07-.09.12-.03.15.15Z"/>
    <path class="cls-251" d="M7.16,23.08c.04-.13.09-.13.15,0,.04-.08.09-.07.15,0,.02.09,0,.2,0,.29-.2.05-.4.14-.6.17-.08-.19.14-.38.15-.46.04-.13.09-.13.15,0Z"/>
    <path class="cls-270" d="M6.7,23.54v.15c0,.15,0,.31,0,.46-.04.13-.09.13-.15,0-.04.13-.09.13-.15,0-.13-.2-.12-.57,0-.76.1.03.23.15.31.15Z"/>
    <path class="cls-228" d="M8.54,26.14c.1.05.1.1,0,.15h-.15s-.11,0-.15,0c0-.56,0-1.12,0-1.68l.17-.05c.03.53.08,1.06.14,1.58Z"/>
    <path class="cls-257" d="M9,24.61l-.15,1.07c.3.09.3.23,0,.31l-.15.15s0,.15,0,.15h-.15v-.15c-.08-.51-.19-1.32,0-1.68.1.03.42.15.46.15Z"/>
    <path class="cls-48" d="M9.61,25.22c.4.12.59.63.15.76-.08,0-.24.15-.31.15-.05,0-.1,0-.15,0-.31-.18-.35-.65-.15-.92.06-.26.11-.38.31-.15.04-.14.09-.13.15,0,.13.04.13.09,0,.15Z"/>
    <path class="cls-57" d="M9.15,25.22c.02.28.21.6.15.92-.16,0-.34-.14-.46-.15.02-.08-.02-.21,0-.31l.15-1.07s.1,0,.15,0c.11.19.22.48,0,.61Z"/>
    <path class="cls-187" d="M8.69,26.14s.13-.16.15-.15c-.03.12-.15.14-.15.15Z"/>
    <path class="cls-67" d="M10.22,25.37c.38,0,.38.25,0,.76-.17,0-.38-.15-.46-.15.08-.29-.11-.54-.15-.76.17-.43.37-.37.61.15Z"/>
    <path class="cls-87" d="M10.53,25.37h.15c.03-.14.08-.13.15,0-.03.08.03.23,0,.31l-.46.46s-.1,0-.15,0v-.76c.05-.21.25-.21.31,0Z"/>
    <path class="cls-112" d="M10.37,26.14c-.13-.24.3-.47.46-.46-.12.33.02.38-.46.46Z"/>
    <path class="cls-268" d="M5.63,24c.13.05.13.1,0,.15-.08.45-.16.94-.31,1.38-.09.32-.52.32-.61,0l-.31-.76c-.18-.15-.14-.51.15-.46.19-.34.54-.48.92-.46.04-.13.09-.13.15,0,.13.05.13.1,0,.15Z"/>
    <path class="cls-110" d="M5.33,25.53c.17.05.17.15.15.31.12.4-.02.46-.31.15-.17.11-.5.18-.61,0v-.31s.09-.14.15-.15c.08-.02.53-.02.61,0Z"/>
    <path class="cls-200" d="M5.78,25.98c.07.21-.12.35-.15.46-.05.09-.1.09-.15,0-.09-.06-.25-.29-.31-.31-.13-.04-.13-.09,0-.15.14-.02.29-.15.31-.15.08,0,.22.14.31.15Z"/>
    <path class="cls-135" d="M5.63,24c.39-.69.7-.07.46.46-.26.05-.34-.11-.46-.31,0-.05-.01-.1,0-.15Z"/>
    <path class="cls-84" d="M6.55,25.68v-1.38c-.13-.04-.13-.09,0-.15h.15c0,.48.12,1.18-.15,1.53Z"/>
    <path class="cls-111" d="M5.48,26.44h.15s.01.1,0,.15c-.17-.04-.42.03-.61,0,.13-.06.24-.22.46-.15Z"/>
    <path class="cls-181" d="M5.78,23.38c-.52-.39.43-.67.46,0,.12.22.12.54,0,.76.22.08.2.19,0,.31h-.15c-.03-.46.14-.51-.46-.46.01-.05-.01-.1,0-.15-.13-.15-.04-.28.15-.31-.13-.04-.13-.09,0-.15Z"/>
    <path class="cls-264" d="M6.55,24.15v.15c-.32.31-.09.94-.15,1.38-.16-.53-.14-.68-.15-1.22,0-.1,0-.2,0-.31.04-.13.09-.13.15,0h.15Z"/>
    <path class="cls-283" d="M4.87,20.63c.17.04.3.12.31.31.17.08.18.25.08.22-.29-.08.13-.41.22.08.12.04.12.09,0,.15-.04.13-.09.13-.15,0-.02.22-.62.17-.61,0-.04.13-.09.13-.15,0,.03-.31.14-.58.15-.76.04-.13.09-.13.15,0Z"/>
    <path class="cls-243" d="M4.41,22.62c.22-.18.28-.09.15.15.24-.02.31.27.15.46.22.21.12.3-.15.15.03.27-.32.05-.46-.15-.02-.14.03-.34,0-.46-.01-.16.18-.17.31-.15Z"/>
    <path class="cls-140" d="M5.48,20.33c.13.04.12.09,0,.15-.04.13-.09.13-.15,0-.18.32-.33.37-.46.15h-.15s-.31-.28,0-.46c.14-.12.72-.1.76.15Z"/>
    <path class="cls-68" d="M4.71,22.31c.13.04.13.09,0,.15.13.04.13.09,0,.15.16.22.09.3-.15.15-.04-.11,0-.13-.15-.15.18-.4.12-.81.15-1.22h.15c.11.3.11.61,0,.92Z"/>
    <path class="cls-4" d="M5.48,20.02c.07,0,.14.08.15.15.14.2.07.28-.15.15l-.76-.15v-.15c.15-.19.52-.1.76,0Z"/>
    <path class="cls-190" d="M5.48,20.02c-.22-.02-.55-.02-.76,0-.1,0-.23-.02-.31,0,.19-.25.88-.25,1.07,0Z"/>
    <path class="cls-210" d="M6.24,20.79c-.03.28-.08.54-.15.76-.03.37-.13.52-.31.46-.18-.24-.27-.62-.15-.92-.14-.04-.13-.09,0-.15-.04-.33,0-.59.15-.76.01-.08.12-.21.15-.31h.15c.51-.05.63.7.15.92Z"/>
    <path class="cls-136" d="M5.63,20.94c-.33.15-.34-.23-.15-.46,0-.05-.01-.12,0-.15,0-.02.14-.07.15-.15h.15c-.03.24.11.63-.15.76Z"/>
    <path class="cls-282" d="M4.56,23.38c.31-.23.46.11.15.31.42.03.4.18,0,.31-.31.19-.47.5-.46.92-.27-.02-.33-.4-.31-.61-.11-.36.66-.45.46-.76-.04-.06-.22.18-.3-.31.1.1.41.11.46.15Z"/>
    <path class="cls-109" d="M4.71,24c.31.12.12.2-.15.31-.04.13-.11.37-.15.46-.03.06,0,.18-.15.15-.11-.71-.38-.78.46-.92Z"/>
    <path class="cls-96" d="M5.17,25.98v.15c-.25-.05-.63.18-.92.15.01-.14.17-.27.31-.31.16-.04.42.02.61,0Z"/>
    <path class="cls-220" d="M7.93,17.57c.3.08.06.32-.15.46-.33.12-.69.22-1.07.31,0,.18-.17.28-.31.15.01-.43-.19-.41,0-.92l.08.15"/>
    <path class="cls-63" d="M6.4,18.49c.14.03.13.08,0,.15v.76c.27.42.1.6-.31.31-.14-.56-.54-.74.15-1.22.03-.02.12.02.15,0Z"/>
    <path class="cls-45" d="M8.84,17.73c-.04.13-.09.13-.15,0-.04.1-.1.1-.15,0,0,.24-.17.18-.31,0-.13-.04-.13-.09,0-.15"/>
    <path class="cls-119" d="M9.91,17.73c.14.03.39.28.31.46,0,.1-.06.15-.15.15-.03.14-.08.13-.15,0-.23.08-.28.06-.15-.15-.36-.14-.51-.3-.46-.46.19.02.45-.04.61,0Z"/>
    <path class="cls-229" d="M9.3,17.73c.21.25.29-.06.46.46-.12.16-.34.2-.46,0-.27.33-.37.26-.31-.15-.13-.04-.13-.09,0-.15-.09-.07-.03-.12.15-.15.05,0,.1,0,.15,0Z"/>
    <path class="cls-221" d="M9.15,17.73l-.15.15c-.19.13-.27.05-.15-.15.1,0,.2,0,.31,0Z"/>
    <path class="cls-184" d="M8.23,17.57v.15c.13.04.13.09,0,.15l-.31.15c.18.23.1.31-.15.15-.13-.04-.13-.09,0-.15l.15-.46s.25.01.31,0Z"/>
    <path class="cls-246" d="M11.75,19.26c.16.09.38.41.76.31v.15c.34.23.29.33-.15.31-.04.13-.19.23-.46.31.17.13.35.32.15.46-.01.27-.26.27-.46.15.07.27.17.37.31.31-.2-.26-.11-.34.15-.15.42-.15.48,0,.15.31.19.1,0,.74-.15.92.03.35-.37.32-.46,0-.3-.37-.26-1.07-.15-1.53-.2-.03-.35-.09-.46-.15-.16-.15-.26-.3-.31-.46-.35-.26-.27-.42.15-.46.18-.09.39-.25.61-.46.13-.39.15-.4.31,0Z"/>
    <path class="cls-101" d="M11.29,18.49s.1,0,.15,0v.15c.13.04.13.09,0,.15-.23.28-.9-.13-.76-.46.03-.14.08-.13.15,0,.07-.25.38-.07.46.15Z"/>
    <path class="cls-163" d="M11.44,18.64c.46-.1.29.23.31.61-.05-.03-.22.02-.31,0-.22-.05-.15-.17,0-.31-.14-.02-.13-.07,0-.15,0-.05,0-.1,0-.15Z"/>
    <path class="cls-226" d="M11.29,18.49c-.08,0-.29-.14-.46-.15-.41-.05-.38-.17,0-.31.09.08.53,0,.46.46Z"/>
    <path class="cls-272" d="M10.83,18.03s-.02.24,0,.31c-.05,0-.1,0-.15,0-.11.34-.32.29-.46,0-.03.14-.08.13-.15,0,.05-.05.09-.12.15-.15.14-.09.51-.23.61-.15Z"/>
    <path class="cls-25" d="M12.21,23.23c.41-.21.55.11.31.46.12,0,.17.03.15.15-.07.08-.29.23-.31.31-.1-.05-.2-.1-.31-.15s-.2-.1-.31-.15c0-.05,0-.1,0-.15-.3-.03-.3-.24,0-.31-.08-.23-.06-.28.15-.15.23-.27.33-.27.31,0Z"/>
    <path class="cls-159" d="M11.29,25.68v-.31c-.19-.63-.19-1.19,0-1.68h.15c-.08.63.19,1.47-.15,1.99Z"/>
    <path class="cls-39" d="M11.6,22.93c.29-.02.29.25.15.46.01.09,0,.21,0,.31h-.31c-.1-.02-.16-.04-.15-.15-.13-.04-.13-.09,0-.15-.36-.06-.34-.31,0-.46.06-.28.26-.3.31,0Z"/>
    <path class="cls-185" d="M11.29,23.69v1.68c-.15,0-.31,0-.46,0,.02-.28.02-.59,0-.92-.02-.32-.27-.52-.76-.61-.04.2-.11.27-.31.15-.41-.06-.37-.14,0-.31.34-.13,1.11-.13,1.53,0Z"/>
    <path class="cls-78" d="M13.74,23.38c-.1.27-.25.23-.31.76-.1-.04-.2-.11-.31-.15-.39-.17-.24-.34,0-.61.05-.22.24-.4.46-.46.04-.13.09-.13.15,0-.03.13.04.36,0,.46Z"/>
    <path class="cls-145" d="M12.97,24.3v1.07s-.61-.15-.61-.15c0-.29-.03-.64,0-.92.19.03.44-.04.61,0Z"/>
    <path class="cls-40" d="M13.12,23.38v.61c-.12-.05-.42-.13-.46-.15-.06-.05-.11-.12-.15-.15.07-.35.22-.61.46-.76.05-.13.1-.13.15,0,.35-.04.27.36,0,.46Z"/>
    <path class="cls-49" d="M8.54,20.79c.14.2.14.51,0,.92-.02.41-.18.39-.31,0-.06-.02-.1-.12-.15-.15-.5.03-.71-.12-.31-.46-.3-.09-.29-.22,0-.31-.07-.06-.02-.11.15-.15.18-.12.53-.08.61.15Z"/>
    <path class="cls-116" d="M8.54,21.7c.06.23.11.48.15.76.1,0,.15.06.15.15.1.04.1.1,0,.15.12.29-.09.39-.31.15-.05.02-.12-.02-.15,0-.05-.05-.1-.1-.15-.15l-.15-.76c.03-.1.11-.2.15-.31.08.02.21-.02.31,0Z"/>
    <path class="cls-214" d="M7.16,21.86c.5.67.16.42,0,.92.1.14.1.24,0,.31h-.15s0-.1,0-.15c-.34-.29-.34-.49,0-.61-.32-.09-.32-.36,0-.46.04-.13.09-.13.15,0Z"/>
    <path class="cls-186" d="M7.47,21.09c.34.22.26.49-.15.61-.07.02-.12.09-.15.15h-.15c-.35-.07-.27-.72,0-.92.04-.1.09-.1.15,0,.15-.12.36-.06.31.15Z"/>
    <path class="cls-26" d="M7.77,21.09c.04.32.05.28.31.46-.24.1-.53.09-.76.15l.15-.61c.09-.22.21-.22.31,0Z"/>
    <path class="cls-236" d="M8.23,22.77c-.05-.05-.11-.09-.15-.15,0-.03-.1-.29,0-.61.25.13.14.52.15.76Z"/>
    <path class="cls-31" d="M7.31,22.93v.15h-.15c.02-.1-.02-.23,0-.31.06.05.1.1.15.15Z"/>
    <path class="cls-167" d="M7.47,23.08s-.1,0-.15,0v-.15s.14.08.15.15Z"/>
    <path class="cls-178" d="M7.01,22.31c-.01.2.02.41,0,.61h-.21c-.47-.79-.52-.03-.56,0,.08.26-.02.26-.31,0-.13-.04-.13-.09,0-.15-.22-.1-.22-.22,0-.31.13-.13.29-.23.46-.31.05-.14.1-.14.15,0,.25-.32.38-.19.46.15Z"/>
    <path class="cls-106" d="M6.4,23.38c.02.25-.02.51,0,.76h-.15c0-.25-.02-.51,0-.76-.11-.2-.11-.35,0-.46.24,0,.14.26.15.46Z"/>
    <path class="cls-16" d="M9.76,23.69c.02.09-.01.21,0,.31.13.04.13.09,0,.15.02.07-.03.12-.15.15-.05.12-.1.12-.15,0-.05-.13-.16-.3-.31-.31-.13-.04-.13-.09,0-.15-.06-.18-.06-.32.15-.31-.05-.42.05-.47.31-.15.15.07.26.17.15.31Z"/>
    <path class="cls-30" d="M8.54,24.46v1.68c-.38-.41.08-1.16-.31-1.53,0-.1,0-.2,0-.31.13,0,.23.13.31.15Z"/>
    <path class="cls-85" d="M9,23.69c.21-.23.27-.14.15.15v.15s-.41.13-.61.15c.07-.13.17-.31.15-.46.09-.3.23-.3.31,0Z"/>
    <path class="cls-241" d="M9.61,24.3c.12.05.12.1,0,.15.14.21-.11.25-.31.15-.07-.05-.07-.1,0-.15.04-.05.09-.13.15-.15.04-.01.1.01.15,0Z"/>
    <path class="cls-281" d="M9.3,24.61c-.04.14-.09.14-.15,0,.02-.07.12-.11.15-.15v.15Z"/>
    <path class="cls-212" d="M9,22.77c.03-.14.08-.13.15,0,.24.21.29.36.15.46-.07.4-.19.38-.31,0-.04.29-.26.36-.46.15-.04-.16-.18-.26,0-.46.09-.04.24-.15.31-.15.05-.14.1-.14.15,0Z"/>
    <path class="cls-24" d="M9,23.23c.24-.02.22.38,0,.46-.08-.02-.21.02-.31,0,0-.09-.13-.21-.15-.31.14-.09.3-.13.46-.15Z"/>
    <path class="cls-117" d="M8.84,25.68c-.04-.19,0-1.27.15-1.07.13.43-.1.78-.15,1.07Z"/>
    <path class="cls-274" d="M10.07,24.91c.27,0,.48.05.61.15.13.04.13.09,0,.15-.02.09-.05.15-.15.15-.1-.01-.22.02-.31,0-.18-.04-.38-.2-.61-.15,0-.05,0-.1,0-.15.02-.14.07-.24.15-.31-.13-.05-.13-.1,0-.15-.13-.18-.05-.25.15-.15.04-.1.1-.1.15,0,.4.18.4.34,0,.46Z"/>
    <path class="cls-254" d="M9.3,24.76c.19.05.27.13.15.31-.08.04-.18.16-.31.15-.01-.16-.03-.48,0-.61.05,0,.11,0,.15,0,.14.03.13.08,0,.15Z"/>
    <path class="cls-147" d="M9.61,24.76c.11.09.06.19,0,.31-.03.02-.11-.02-.15,0-.04-.1-.13-.21-.15-.31.07-.15.27-.2.31,0Z"/>
    <path class="cls-266" d="M10.83,24.46c.72.16.14.52,0,.92-.05,0-.1,0-.15,0v-.31c-.29-.09-.29-.22,0-.31-.14-.02-.13-.07,0-.15-.14-.03-.13-.08,0-.15.03-.14.08-.14.15,0Z"/>
    <path class="cls-215" d="M10.68,25.37c-.05,0-.04.01-.15,0l.15-.15v.15Z"/>
    <path class="cls-52" d="M5.48,23.84c-.18.35-.55.47-.92.46.03-.1.14-.22.15-.31.01-.08.02-.23,0-.31.14-.39.34-.4.46,0-.07-.37.02-.39.31-.15.19.08.15.18,0,.31Z"/>
    <path class="cls-208" d="M5.78,23.54c-.03.1-.13.21-.15.31h-.15c0-.1,0-.2,0-.31.09-.12.2-.11.31,0Z"/>
    <path class="cls-126" d="M5.94,22.93c.09,0,.28.02.31,0,0,.15,0,.31,0,.46-.16-.18-.1-.37-.38-.31-.16.03-.05.22-.08.31-.04.13-.22.11-.31,0-.25.01-.32-.27-.15-.46.17-.11.44-.11.61,0Z"/>
    <path class="cls-76" d="M5.78,23.38s.01.11,0,.15c-.1.02-.22-.02-.31,0-.14-.02-.13-.07,0-.15h.31Z"/>
    <path class="cls-68" d="M5.63,22.31c0,.32-.24.32-.31,0-.3-.19-.3-.42,0-.61-.26-.13-.3-.25,0-.31h.15c.21.15.27.66.15.92Z"/>
    <path class="cls-154" d="M5.63,20.94s0,.1,0,.15c-.01.16-.06.21-.15.15h-.46s.16-.29.15-.31c-.32-.11-.05-.33.15-.46h.15c0,.19.14.34.15.46Z"/>
    <path class="cls-227" d="M5.33,21.4v.31c-.13.27-.28.47-.46.61-.05.1-.1.1-.15,0v-.92h.61Z"/>
    <path class="cls-136" d="M5.78,22.01c.26,0,.18.16,0,.31-.04.14-.09.13-.15,0,0-.43-.1-.59-.15-.92,0-.05,0-.1,0-.15,0-.08.07-.15.15-.15.04.3.1.62.15.92Z"/>
    <path class="cls-165" d="M5.33,20.48l-.15.46s-.42.06-.31-.31l.46-.15Z"/>
    <path class="cls-161" d="M5.17,23.69c-.13.03-.31-.02-.46,0-.01-.05-.12-.28-.15-.31.06-.04.1-.12.15-.15-.05-.31.08-.37.31-.15.28-.09.42.44.15.61Z"/>
    <path class="cls-284" d="M5.02,22.93c.13.05.13.1,0,.15-.1.06-.21.09-.31.15-.22-.08-.11-.34-.15-.46.06-.03.11-.14.15-.15.04-.1.09-.1.15,0l.15.31Z"/>
    <path class="cls-234" d="M5.17,22.31c.21.24.13.33-.15.15-.07.12-.22.12-.31,0v-.15h.15c.05-.41.19-.39.31,0Z"/>
    <path class="cls-253" d="M5.02,22.47c.13.04.13.09,0,.15-.04.13-.09.13-.15,0-.05.01-.11-.02-.15,0v-.15c.1-.01.22.02.31,0Z"/>
    <path class="cls-5" d="M6.55,19.56c.3.17.5.38.61.61.3.07.34.37,0,.46-.24.04-.5.1-.76.15-.04.13-.09.13-.15,0,0-.67-.05-.47-.15-.92-.01-.05.01-.1,0-.15.16-.06.24-.16.31-.31.21-.21.29-.12.15.15Z"/>
    <path class="cls-151" d="M6.09,22.16c-.17-.09-.17-.3,0-.61.03-.2-.08-.63.15-.76.1.35.24,1.27-.15,1.38Z"/>
    <path class="cls-249" d="M6.09,22.16c.19.22-.1.27-.31.15-.02-.1.02-.21,0-.31l.31-.46c-.02.18.05.49,0,.61Z"/>
    <path class="cls-97" d="M7.62,18.34c.4.02.38.17,0,.31.13.04.13.09,0,.15-.09.29-.23.29-.31,0-.22-.15-.48-.1-.76.15-.23.11-.2-.09-.15-.31,0-.05,0-.1,0-.15.08-.06.21-.11.31-.15.45-.24.75-.24.92,0Z"/>
    <path class="cls-50" d="M7.77,18.03v.15c.2.22.1.31-.15.15h-.92c.22-.1.47-.52,1.07-.31Z"/>
    <path class="cls-74" d="M6.55,18.95c.3.3.28.43-.15.46-.23-.66,0-.56,0-.76-.01.15.03.22.15.31Z"/>
    <path class="cls-156" d="M8.54,17.73c.1.04.1.1,0,.15.1.04.1.1,0,.15-.03.13-.08.13-.15,0-.12-.03-.17-.08-.15-.15-.02-.04.01-.11,0-.15h.31Z"/>
    <path class="cls-176" d="M9,17.88v.15c-.09.29-.22.29-.31,0-.1-.04-.1-.1,0-.15-.1-.04-.1-.1,0-.15h.15c.02.07.09.13.15.15Z"/>
    <path class="cls-221" d="M8.69,17.88c-.04.1-.1.1-.15,0v-.15h.15v.15Z"/>
    <path class="cls-195" d="M10.22,18.34c.37.06.5.23.15.46-.05.13-.1.13-.15,0-.09.28-.21.28-.31,0-.14.43-.52.3-.46-.15-.13-.04-.13-.09,0-.15-.02-.24.28-.29.46-.15.05-.01.1.01.15,0s.1,0,.15,0Z"/>
    <path class="cls-71" d="M9.76,18.19s.13.09.15.15c-.09.02-.26.23-.46.15-.55.3-.86-.35-.15-.31.05,0,.29-.2.46,0Z"/>
    <path class="cls-157" d="M8.69,18.03c.1,0,.21,0,.31,0,.08,0,.18.14.31.15-.19.27-.2.35.15.31v.15c-.09.31-.31.37-.61.31-.26.09-.47-.02-.61-.31-.05-.2,0-.36.15-.46-.1-.04-.1-.09,0-.15.05,0,.1,0,.15,0,.05-.1.1-.1.15,0Z"/>
    <path class="cls-105" d="M8.23,18.19c.04-.1.1-.1.15,0,.05.18.39.19-.15.46-.24.24-.5.46-.61,0,.02-.09-.03-.22,0-.31.02-.06.12-.1.15-.15.03-.05.11-.11.15-.15h.15c.09.02.15.05.15.15Z"/>
    <path class="cls-191" d="M8.23,17.88s.1-.03.15.15c-.04.1-.1.1-.15,0h-.31c.09-.08.13-.2.31-.15Z"/>
    <path class="cls-224" d="M12.97,20.63s.18.16.31.15c.35.04.34.21,0,.31-.02.15-.07.25-.15.31-.03.41-.13.41-.31,0-.05.41-.19.39-.31,0-.15.24-.25.3-.31,0,0-.17-.15-.29-.15-.31-.3-.04-.3-.25,0-.31-.07-.31.07-.33.31-.15.08-.23.53-.23.61,0Z"/>
    <path class="cls-142" d="M10.83,19.71c-.01.08-.11.37-.15.46.23.2.13.29-.15.15-.04.13-.09.12-.15,0-.45.29-.73-.26-.31-.61-.2-.22-.11-.31.15-.15.03-.14.08-.13.15,0,.22-.38.34-.19.46.15Z"/>
    <path class="cls-8" d="M11.44,18.95s.1.01,0,.31c-.07.2-.07.41-.3.54-.14.08-.23-.07-.31-.08-.13-.04-.12-.09,0-.15,0-.2.12-.42.31-.46-.25-.36.02-.44.31-.15Z"/>
    <path class="cls-124" d="M12.36,20.02c.35-.02.53.05.76.31-.19.29-.78.18-1.07,0-.04.13-.09.13-.15,0,.04-.31.4-.25.46-.31Z"/>
    <path class="cls-81" d="M12.51,21.4c.32.24.19.73-.15.92-.04.13-.09.13-.15,0h-.15c-.13-.3.15-.74.15-.92h.31Z"/>
    <path class="cls-155" d="M10.98,20.63c.13.05.38-.11.46.15-.04.13-.09.13-.15,0-.26.17-.93.13-1.07-.15-.27-.3-.25-.35.15-.31.01,0,.14,0,.15,0,.13-.13.38.14.46.31Z"/>
    <path class="cls-222" d="M12.05,22.31h.15c.1.13.2.28.15.46,0,.28-.21.28-.61,0-.23.16-.41-.07-.31-.31-.14-.03-.13-.08,0-.15.04-.1.1-.1.15,0h.46Z"/>
    <path class="cls-150" d="M11.6,22.31h-.15c-.33-.05-.22-.75-.15-1.07-.29-.09-.29-.22,0-.31-.13-.04-.13-.09,0-.15h.15c.11.39-.17,1.11.15,1.53Z"/>
    <path class="cls-113" d="M11.9,21.24c-.02.14.02.31,0,.46h-.3c.04-.23-.06-.58,0-.76.19-.16.45.05.31.31Z"/>
    <path class="cls-137" d="M12.05,20.79c.02.09,0,.21,0,.31-.07.02-.14.08-.15.15l-.31-.31c.08-.26.3-.1.46-.15Z"/>
    <path class="cls-80" d="M10.68,20.17c.19.12.36.2.31.46-.36-.14-.35-.24-.46-.31.03-.06.13-.11.15-.15Z"/>
    <path class="cls-23" d="M12.36,20.63s-.19.12-.31.15c-.02-.12-.18-.29-.15-.46h.15c.33.05.44.16.31.31Z"/>
    <path class="cls-242" d="M10.68,18.34l.76.46s0,.1,0,.15c-.12-.01-.25.14-.31.15-.05.13-.1.13-.15,0-.39-.04-.6-.14-.61-.31l-.15-.46c.26-.03.27,0,.46,0Z"/>
    <path class="cls-211" d="M12.97,22.93c.04.4.02.78-.46.76-.1-.07-.24-.43-.31-.46-.12-.14-.03-.29.15-.31.17-.14.49-.22.61,0Z"/>
    <path class="cls-69" d="M12.36,22.77c.14.03.14.08,0,.15,0,.13,0,.26-.15.31-.03-.01-.25-.01-.31,0-.04-.11-.09-.21-.15-.31-.13-.04-.13-.09,0-.15.11.03.45,0,.61,0Z"/>
    <path class="cls-83" d="M11.75,22.93c.41-.03.35,0,.15.31-.03,0-.09.13-.15.15-.01-.07-.23-.27-.15-.46.04-.13.09-.13.15,0Z"/>
    <path class="cls-22" d="M11.29,23.54l.15.15h-1.68s-.14-.13-.15-.31c.05-.1.1-.1.15,0,.53.05,1.04.1,1.53.15Z"/>
    <path class="cls-72" d="M11.29,22.77c.13.05.13.1,0,.15-.01.15.01.31,0,.46-.09.12-.46.1-.61,0-.23-.12-.1-.35.15-.31-.02-.31,0-.46.31-.31.04-.13.09-.13.15,0Z"/>
    <path class="cls-245" d="M10.37,23.38c.11-.26.24-.29.31,0h.61v.15c-.45-.1-1.18.2-1.53-.15.14-.23.44-.17.61,0Z"/>
    <path class="cls-247" d="M11.75,22.77v.15h-.46c0-.05,0-.1,0-.15-.18-.21-.14-.42.15-.31.16,0,.28.3.31.31Z"/>
    <path class="cls-33" d="M10.83,24.46s-.11,0-.15,0c-.1-.04-.1-.09,0-.15l-.46-.15c-.06.06-.12,0-.15-.15-.11-.04-.11-.1,0-.15.55-.05,1.12-.02.76.61Z"/>
    <path class="cls-230" d="M10.07,24c.06.05.06.1,0,.15-.02.13-.2.1-.31,0v-.15c.1-.03.23-.15.31-.15v.15Z"/>
    <path class="cls-275" d="M14.04,22.62c-.06.06.19.31-.31.31-.05,0-.11,0-.15,0-.27.29-.37.24-.31-.15-.24-.34-.29-1.02-.15-1.38,0-.13,0-.26.15-.31.13-.03.23,0,.31.1l.45,1.43Z"/>
    <path class="cls-134" d="M13.58,22.93c.01.3-.15.47-.46.46v-.46c-.13-.19-.06-.19.15-.15.14.02.25.14.31.15Z"/>
    <path class="cls-260" d="M13.28,22.77c-.02.15-.05.11-.15.15-.04.01-.1,0-.15,0-.2.02-.41-.01-.61,0,0-.05.01-.12,0-.15-.06-.17.09-.22.46-.15.03-.14.08-.13.15,0,.11-.24.21-.19.31.15Z"/>
    <path class="cls-37" d="M8.84,20.79c.1.04.1.09,0,.15-.05.52-.1,1.03-.15,1.53-.24-.3-.13-.43-.15-.76-.01-.25-.04-.7,0-.92-.19-.22-.11-.28.15-.15.14,0,.19.06.15.15Z"/>
    <path class="cls-192" d="M9.3,20.48c.13.04.13.09,0,.15-.06.16-.27.16-.61,0-.11.02-.13.04-.15.15-.2-.03-.41-.13-.61-.15-.05.07-.1.07-.15,0-.13-.04-.13-.09,0-.15.04-.13.09-.13.15,0,.52-.18.98-.18,1.38,0Z"/>
    <path class="cls-218" d="M7.16,20.63c.09-.37.3-.37.61,0,.05,0,.1,0,.15,0-.02.07-.08.15-.15.15-.15.26-.43.17-.61,0-.22.12-.55.11-.76,0,.13-.26.5-.14.76-.15Z"/>
    <path class="cls-91" d="M7.77,20.79c0,.1-.01.21,0,.31-.1-.02-.22.02-.31,0-.1-.03-.22-.14-.31-.15-.13-.04-.13-.09,0-.15.2,0,.41.02.61,0Z"/>
    <path class="cls-6" d="M9,21.24c.06.25.15.47.31.68-.19.19-.3.47-.31.85-.05,0-.1,0-.15,0v-.15c-.13-.53-.12-1.14,0-1.68,0-.05,0-.1,0-.15.04-.11.1-.11.15,0,.41.21.41.36,0,.46Z"/>
    <path class="cls-36" d="M8.84,22.62c-.06-.05-.11-.1-.15-.15.07-.48-.17-1.17.15-1.53.03.56-.02,1.12,0,1.68Z"/>
    <path class="cls-240" d="M7.01,20.94c.14.28.01.61,0,.92,0,.18,0,.36,0,.46-.19.08-.4-.14-.46-.15-.12-.33-.14-.89,0-1.22.09-.14.32-.11.46,0Z"/>
    <path class="cls-143" d="M7.16,20.79v.15s-.1,0-.15,0c-.15-.02-.31.01-.46,0-.04.13-.09.13-.15,0-.1-.04-.1-.09,0-.15.21-.04.52,0,.76,0Z"/>
    <path class="cls-34" d="M6.4,20.94c.1.34.14.88,0,1.22-.08.12.13.43-.46.31-.2.22-.26.13-.15-.15.08-.02.3-.14.31-.15.27-.3.16-.95.15-1.38.03-.02.1,0,.15,0-.02.03,0,.1,0,.15Z"/>
    <path class="cls-44" d="M6.55,22.16s-.15,0-.15,0c.04-.39-.05-.85,0-1.22h.15v1.22Z"/>
    <path class="cls-231" d="M5.63,22.77c0-.32.22-.3.31,0v.15c-.17.02-.44.02-.61,0-.02.41-.18.39-.31,0-.07-.04-.07-.09,0-.15.03-.32.56-.34.61,0Z"/>
    <path class="cls-219" d="M5.94,22.47c.02.08-.01.21,0,.31h-.31c-.3-.14-.3-.32,0-.46.05,0,.11.01.15,0,.02.1.15.14.15.15Z"/>
    <path class="cls-51" d="M9.61,23.08c.04-.1.09-.1.15,0,.23.12.18.22-.15.31-.06.02-.27.12-.31.15-.23,0-.21-.21,0-.31-.03-.14-.14-.28-.15-.46.22-.24.37-.13.46.31Z"/>
    <path class="cls-171" d="M9.3,23.23c.02.09-.01.21,0,.31-.04.04-.04.25-.15.31,0-.1-.07-.13-.15-.15v-.46c.1-.02.21.01.31,0Z"/>
    <path class="cls-11" d="M10.07,24.15c.1.03.1.08,0,.15-.04.11-.14.11-.31,0-.04.13-.09.13-.15,0,.04-.14.04-.1.15-.15.06-.03.21.02.31,0Z"/>
    <path class="cls-273" d="M9.76,24.61s.02.12,0,.15c-.04.13-.09.13-.15,0h-.31s0-.1,0-.15c.09-.01.21-.12.31-.15.14-.07.19,0,.15.15Z"/>
    <path class="cls-223" d="M9.91,24.46s-.15.14-.15.15c-.08-.02-.13-.07-.15-.15,0-.03,0-.12,0-.15.05,0,.1,0,.15,0,.1.02.16.04.15.15Z"/>
    <path class="cls-66" d="M9.15,21.55c.23-.07.47.13.61.31.11.3-.35.44-.46.15l-.07.21c.24.11.21.5-.08.55-.04-.01-.1,0-.15,0v-1.53c.38-.28.51.04.15.31Z"/>
    <path class="cls-204" d="M10.37,24.61c.11-.09.22-.12.31,0,0,.05,0,.1,0,.15-.04.25-.41.25-.61.15-.03-.09.02-.32,0-.46.02-.14.07-.13.15,0,.16-.11.23-.03.15.15Z"/>
    <path class="cls-238" d="M10.68,24.76c0,.1,0,.2,0,.31-.23,0-.52.1-.61-.15l.61-.15Z"/>
    <path class="cls-230" d="M10.07,24.3c.11.02.1.07,0,.15-.05,0-.13-.01-.15,0l-.15-.15h.31Z"/>
    <path class="cls-183" d="M9.61,25.07c-.01-.1,0-.21,0-.31h.15s.02.16-.15.31Z"/>
    <path class="cls-95" d="M10.68,24.46s0,.1,0,.15c-.09-.02-.23.03-.31,0-.15-.18-.07-.26.15-.15.05-.1.1-.1.15,0Z"/>
    <path class="cls-1" d="M5.33,22.93c.09.14.13.3.15.46,0,.05,0,.1,0,.15-.1.03-.21.13-.31.15.05-.23-.12-.44-.15-.61,0-.05,0-.1,0-.15.07.02.21-.01.31,0Z"/>
    <path class="cls-259" d="M5.33,21.7v.61c-.03.14-.08.13-.15,0h-.31v-.76s.46.15.46.15Z"/>
    <path class="cls-77" d="M5.63,22.31c0,.15,0,.31,0,.46h-.61c-.11-.03-.1-.08,0-.15v-.15c.07-.02.13-.08.15-.15.05,0,.1,0,.15,0,.1,0,.22.02.31,0Z"/>
    <path class="cls-64" d="M5.02,22.77c0,.05,0,.1,0,.15-.17-.06-.17-.15-.15-.31h.15c0,.05,0,.1,0,.15Z"/>
    <path class="cls-205" d="M6.7,18.95c.85,0,1,.15.46.46.26.18.17.32-.15.31-.06.21-.21.16-.46-.15-.04-.06-.14-.11-.15-.15.06-.13.08-.3.15-.46.04-.13.09-.13.15,0Z"/>
    <path class="cls-53" d="M7.77,20.48v.15c-.2-.01-.41-.01-.61,0,.02-.15-.02-.32,0-.46-.37-.21-.26-.35.15-.31.05-.13.1-.13.15,0,.19.11.33.4.31.61Z"/>
    <path class="cls-168" d="M7.01,19.71c.18-.22.37-.13.31.15-.03.1-.14.22-.15.31-.49-.16-.46-.38-.61-.61.14.1.31.1.46.15Z"/>
    <path class="cls-153" d="M13.12,20.33s.16-.02.15.08c0,.07-.21.19-.3.23-.23.02-.55,0-.61,0l-.31-.31h1.07Z"/>
    <path class="cls-263" d="M8.23,18.64c.28.02.51-.02.61.31.42.07.41.33,0,.46-.37.23-.53.18-.46-.15-.15-.12-.3-.12-.46,0-.21.19-.34.13-.31-.15-.4-.03-.37-.17,0-.31.01-.05-.01-.11,0-.15.2.01.41-.02.61,0Z"/>
    <path class="cls-14" d="M7.62,18.8c-.02.09.02.23,0,.31.27.3.03.35-.31.31-.04.13-.09.13-.15,0,.04-.09.19-.28.15-.3-.27.07-.41-.07-.61-.15.06-.26.46-.39.61-.15.09-.02.21.01.31,0Z"/>
    <path class="cls-199" d="M6.55,18.95c.02-.05-.04-.19.03-.27.19-.21.93-.35.74.12-.19.05-.38.2-.61.15-.05-.02-.12.02-.15,0Z"/>
    <path class="cls-55" d="M8.69,18.03c-.05,0-.1,0-.15,0v-.15h.15v.15Z"/>
    <path class="cls-19" d="M9.45,18.64s.25.12.46.15c.25.1.17.65-.15.61v.15c-.04.13-.09.13-.15,0-.11.12-.24,0-.31-.15-.11.07-.2.07-.31,0-.05.13-.1.13-.15,0,.04-.11-.04-.36,0-.46.13-.32.29-.34.61-.31Z"/>
    <path class="cls-169" d="M10.22,18.8l.24.12c-.04.16-.12.38-.24.65-.03,0-.09.12-.15.15-.04.14-.09.13-.15,0-.13-.04-.13-.09,0-.15-.09-.02-.15-.05-.15-.15l.15-.61c.1.01.21-.02.31,0Z"/>
    <path class="cls-88" d="M10.98,19.1c-.04.13-.09.13-.15,0-.08.2-.23.36-.46.46-.05,0-.1,0-.15,0v-.76s.1,0,.15,0c.2.04.46.16.61.31Z"/>
    <path class="cls-46" d="M8.38,18.19h-.15v-.15h.15s-.01.11,0,.15Z"/>
    <polygon class="cls-279" points="8.23 18.19 8.08 18.03 8.23 18.03 8.23 18.19"/>
    <path class="cls-65" d="M12.82,21.4c.29.11.35.71.15.92.02.26-.43.14-.61,0-.06-.28,0-.66.15-.92h.31Z"/>
    <path class="cls-81" d="M13.12,21.4c-.02.49.19,1.08.15,1.38-.09-.01-.22-.15-.31-.15-.29-.09-.29-.22,0-.31,0-.32.03-.63-.15-.92h.31Z"/>
    <path class="cls-213" d="M10.07,19.71c-.03.27.03.53.31.61-.02.01-.08.25-.15.31-.05.13-.1.13-.15,0l-.61-.15c-.13-.04-.13-.09,0-.15-.14-.27,0-.46.31-.46-.05-.15,0-.2.15-.15.03-.02.11.02.15,0Z"/>
    <path class="cls-174" d="M10.83,19.1c.18.09.13.33,0,.46,0,.05,0,.1,0,.15-.16-.03-.37-.15-.46-.15-.07-.66.05-.38.46-.46Z"/>
    <path class="cls-258" d="M11.14,19.1c0,.22-.09.39-.31.46,0-.03-.16-.31,0-.46.05,0,.1,0,.15,0s.1,0,.15,0Z"/>
    <path class="cls-271" d="M12.82,22.62s-.2.14-.46.15c-.07-.15-.49-.09-.15-.46h.15c.29.07.44.17.46.31Z"/>
    <path class="cls-131" d="M10.07,20.63c.05,0,.1,0,.15,0,.2.02.69.31,1.07.15v.15c-.23.29-.62.39-.76,0-.21.12-.7.09-.76-.15-.13-.04-.13-.09,0-.15.06-.13.18-.08.31,0Z"/>
    <path class="cls-47" d="M11.44,22.31c0,.05,0,.1,0,.15,0,.02-.14.16-.15.31h-.15c-.26.06-.38-.29-.15-.46l.15-1.07c.04-.13.09-.13.15,0,0,.43.15.9.15,1.07Z"/>
    <path class="cls-166" d="M11.29,20.94c0,.1,0,.2,0,.31h-.15c-.01.13-.07.18-.15.15-.04.23-.31.34-.46.15-.3-.14-.3-.32,0-.46-.13-.04-.13-.09,0-.15.25.01.51,0,.76,0Z"/>
    <path class="cls-61" d="M10.37,23.23c.13.04.13.09,0,.15-.2,0-.42-.02-.61,0-.05,0-.11-.01-.15,0,0-.06.12-.22.15-.31.14-.12.64-.11.61.15Z"/>
    <path class="cls-225" d="M10.83,23.08c-.06.09-.1.21-.15.31-.1,0-.2,0-.31,0v-.15c-.17-.11-.17-.21,0-.31-.3-.25-.04-.65.31-.31.33-.12.32.22.15.46Z"/>
    <path class="cls-114" d="M11.14,22.77c-.1.1-.22.19-.31.31,0-.17-.11-.31-.15-.46-.14-.04-.13-.09,0-.15-.1-.4.01-.43.31-.15.02.12.16.3.15.46Z"/>
    <path class="cls-202" d="M10.68,24.3c-.05.1-.1.1-.15,0-.07.18-.25.2-.31,0-.1-.04-.1-.1,0-.15.18.05.32-.1.46.15Z"/>
    <path class="cls-129" d="M10.22,24.15v.15c.13.04.13.09,0,.15-.05,0-.1,0-.15,0,0-.05,0-.1,0-.15s0-.1,0-.15v-.15c.09,0,.14.15.15.15Z"/>
    <path class="cls-173" d="M10.68,24.46c-.05,0-.11-.01-.15,0-.13-.04-.13-.09,0-.15h.15s-.01.1,0,.15Z"/>
    <path class="cls-32" d="M12.97,22.31c0,.1,0,.2,0,.31-.05,0-.1,0-.15,0-.15-.14-.4,0-.46-.31h.61Z"/>
    <path class="cls-128" d="M9.3,20.63c.12-.12.35-.13.46,0v.15c-.2.43-.67.66-.76,0h-.15s-.12-.09-.15-.15c.17-.04.42.02.61,0Z"/>
    <path class="cls-277" d="M9,20.17c.03-.14.08-.13.15,0,.18-.25.4-.14.31.15v.15c-.03.1-.09.09-.15,0-.46,0-.92,0-1.38,0-.13-.04-.13-.09,0-.15.44-.28.8-.33,1.07-.15Z"/>
    <path class="cls-252" d="M7.77,19.87c.31.07.36.17.15.31.14.04.13.09,0,.15v.15h-.15c-.27-.11-.34-.34-.31-.61.04-.13.09-.13.15,0,.05-.11.1-.11.15,0Z"/>
    <path class="cls-216" d="M10.07,20.63c-.1,0-.2,0-.31,0-.15,0-.31-.01-.46,0v-.15c.05,0,.1,0,.15,0,.2,0,.51-.08.61.15Z"/>
    <path class="cls-172" d="M9.76,20.79c.17.01.44.14.76.15v.15c-.09.29-.22.29-.31,0-.25.08-.45.18-.61.31h-.15c.11.28-.07.29-.31.15-.04-.04-.03-.25-.15-.31v-.46c.27.3.64,0,.76,0Z"/>
    <path class="cls-123" d="M9.3,22.01c.16.05.27.15.31.31.34.04.32.39,0,.46.13.04.13.09,0,.15.13.04.13.09,0,.15-.15-.05-.32-.26-.46-.31-.02-.25-.09-.66.15-.76Z"/>
    <path class="cls-175" d="M10.37,22.93l.12.07-.12.23c-.18-.16-.43-.1-.61-.15-.05-.01-.11.01-.15,0v-.15c.48-.24.73-.24.76,0Z"/>
    <path class="cls-127" d="M10.53,22.01c.3-.01.38.28.15.46.01.05-.01.11,0,.15-.15.01-.28.3-.31.31-.21.05-.53-.03-.76,0v-.15c.19-.3.19-.45,0-.46-.05-.06-.42.16-.31-.31.1-.04.43.08.46-.15-.13-.04-.13-.09,0-.15.04-.13.09-.13.15,0,.16.17.36.27.61.31Z"/>
    <path class="cls-144" d="M9.76,21.7s-.01.1,0,.15c-.28-.02-.43-.1-.61-.31.1-.03.21-.13.31-.15.35.05.45.15.31.31Z"/>
    <path class="cls-59" d="M10.53,24.3v.15c-.07.02-.13.08-.15.15-.17-.06-.14-.15-.15-.15v-.15h.31Z"/>
    <path class="cls-115" d="M7.77,19.56c.27.16.13.25-.15.31-.05,0-.1,0-.15,0s-.1,0-.15,0c-.17-.03-.22-.12-.31-.15.05-.1.11-.2.15-.31h.15c.32-.17.47-.12.46.15Z"/>
    <path class="cls-118" d="M8.84,19.41c.17.15.11.31-.15.46,0,.28-.25.29-.31,0-.04.08-.09.07-.15,0-.4.01-.33-.33,0-.46-.18-.22-.1-.3.15-.15.01.02.4.14.46.15Z"/>
    <path class="cls-276" d="M7.93,19.26c.15-.05.2,0,.15.15.1.29-.1.37-.31.15l-.46-.15c.15-.06.26-.15.31-.31.1.06.21.09.31.15Z"/>
    <path class="cls-189" d="M8.38,19.26c-.04.05-.09.13-.15.15-.04.13-.1.13-.15,0-.05-.05-.09-.12-.15-.15-.09-.33.2-.34.46-.46.03.12-.04.4,0,.46Z"/>
    <path class="cls-138" d="M9.15,19.56h.15l.15.15c.04-.13.09-.13.15,0,.13.04.13.09,0,.15-.05.17-.21.27-.46.31-.05,0-.1,0-.15,0-.17-.05-.27-.15-.31-.31-.34-.36.1-.32.15-.46.05,0,.1,0,.15,0,.11,0,.16.05.15.15Z"/>
    <path class="cls-158" d="M9.61,19.56c.13.04.13.09,0,.15h-.15l-.15-.15s-.11.02-.15,0c-.09-.09-.04-.14.15-.15.15.03.22.12.31.15Z"/>
    <path class="cls-54" d="M9.3,19.41l-.15.15c-.07-.03-.12-.09-.15-.15.02,0,.01-.06.31,0Z"/>
    <path class="cls-103" d="M9.91,19.56v.15c-.06.05-.1.09-.15.15-.04.13-.09.13-.15,0v-.31s.11-.01.15,0h.15Z"/>
    <polygon class="cls-177" points="9.91 19.56 9.76 19.56 9.76 19.41 9.91 19.56"/>
    <path class="cls-164" d="M9.61,19.87h.15c-.06.07-.03.41-.31.46-.09-.03-.23-.15-.31-.15-.07-.41.1-.31.46-.31Z"/>
    <path class="cls-100" d="M10.98,22.31c-.35-.05-.29-.43,0-.61-.33,0-.29-.18,0-.31.05-.02.1-.12.15-.15-.02.4.12.75-.15,1.07Z"/>
    <path class="cls-127" d="M10.53,21.09c0,.15,0,.31,0,.46.3.03.28.18,0,.31-.2.27-.6.02-.46-.31-.19.13-.27.05-.15-.15-.22-.12-.12-.23.31-.31.1,0,.2,0,.31,0Z"/>
    <path class="cls-120" d="M10.98,21.4v.31c-.09.41-.21.55-.46.15-.01-.1,0-.21,0-.31.13-.1.33-.1.46-.15Z"/>
    <path class="cls-149" d="M10.98,22.31c-.05.06-.23.09-.31.15-.04-.15-.13-.27-.15-.46-.14-.04-.13-.09,0-.15.16,0,.32-.08.46-.15,0,.2-.02.43,0,.61Z"/>
    <path class="cls-193" d="M8.69,19.87c.28.04.35-.13.31.31-.33.03-.69.24-1.07.15-.01-.05.01-.11,0-.15.05-.13.2-.24.46-.31.1,0,.21-.01.31,0Z"/>
    <path class="cls-58" d="M8.23,19.87c-.07.22-.33.2-.46,0-.05,0-.1,0-.15,0,.06-.08.09-.25.15-.31.01-.01.22-.11.31-.15.04-.02.11.02.15,0v.46Z"/>
    <path class="cls-148" d="M8.23,19.87c.05,0,.1,0,.15,0-.07.22-.24.3-.46.31-.02-.07-.16-.18-.15-.31.15.01.31,0,.46,0Z"/>
    <path class="cls-248" d="M10.22,21.09l-.31.31c-.01.24-.18.18-.31,0-.1-.44.23-.31.61-.31Z"/>
    <path class="cls-196" d="M9.91,21.4s.09.12.15.15c.13.23.09.3-.15.15h-.15c-.03-.1-.22-.22-.31-.31.05,0,.1,0,.15,0,.09,0,.25-.02.31,0Z"/>
    <path class="cls-146" d="M9.61,22.31c.06-.13.46-.26.46-.07v.53s-.46,0-.46,0c0-.11.02-.44,0-.46Z"/>
    <path class="cls-278" d="M10.07,21.55c.13.07.05.31.46.31,0,.05,0,.1,0,.15-.4.17-.55.19-.61-.31l.15-.15Z"/>
    <path class="cls-98" d="M9.45,19.71c-.08-.01-.12-.14-.15-.15l.15.15Z"/>
  </g>
</svg>