<?xml version="1.0" encoding="UTF-8"?>
<svg id="Layer_1" xmlns="http://www.w3.org/2000/svg" version="1.1" viewBox="0 0 64 64">
  <!-- Generator: Adobe Illustrator 29.8.0, SVG Export Plug-In . SVG Version: 2.1.1 Build 160)  -->
  <defs>
    <style>
      .st0 {
        fill: #008cff;
      }

      .st1 {
        fill: #fff;
      }
    </style>
  </defs>
  <circle class="st1" cx="32" cy="32" r="32"/>
  <path class="st0" d="M19,34.5c-.3-.2-.7-.2-.9.1-.1.2-.2.3-.1.5,1.4,6.4,7.2,11.2,14,11.2,1.4,0,2.9-.2,4.3-.7.3-.1.5-.5.4-.8,0-.2-.2-.3-.4-.4-3.1-1.3-6-2.9-8.9-4.5-2.9-1.7-5.7-3.5-8.4-5.4ZM51.3,38.8c-.3-.5-.7-.9-1.2-1.4-.5-.5-1.3-.6-1.8,0-.2.1-.3.3-.3.5,0,0,0,0,0,0-.2.5,0,1,.3,1.3,1.9,2,2.2,3.1,2.1,3.4-.2.2-1.4.6-4.7-.3-.5-.1-1-.3-1.6-.4-.4-.1-.7-.2-1.1-.4.6-.7,1.1-1.4,1.6-2.2,0,0,0,0,0,0,1.2-2.2,1.9-4.6,1.9-7.1,0-.5,0-1,0-1.5-.8-7.2-6.9-12.8-14.3-12.8-3.1,0-6.2,1-8.7,2.9-1.5,1.1-2.8,2.6-3.7,4.2,0,0,0,0,0,0-.5.8-.8,1.6-1.1,2.5-.3-.3-.6-.5-.9-.8-.4-.4-.8-.8-1.2-1.1-2.4-2.5-2.7-3.7-2.6-4,.2-.2,1.3-.5,4,.1.5.1,1,0,1.3-.4h0c.5-.6.4-1.4-.2-1.8-.2-.1-.3-.2-.5-.3-.6-.1-1.3-.3-1.9-.3-2.5-.3-4.1.2-4.9,1.5-.3.5-.5,1.2-.2,2.3.4,1.6,2,3.6,4.2,5.7.7.7,1.5,1.3,2.3,2,.6.5,1.2,1,1.9,1.5.4.3.9.7,1.3,1s.9.6,1.4,1c2.1,1.4,4.3,2.8,6.4,4.1.8.4,1.6.9,2.3,1.3.8.4,1.5.8,2.3,1.2,1.8.9,3.5,1.7,5.2,2.4.7.3,1.4.6,2.1.8,1,.4,1.9.7,2.8.9h0c2.1.7,3.9,1,5.3,1h.1c1.8,0,3-.5,3.6-1.5.7-1.3.3-3-1.2-5Z"/>
</svg>